<svg xmlns="http://www.w3.org/2000/svg" width="42.667" height="42.667" viewBox="0 0 42.667 42.667">
  <path fill="none" stroke="#cd4307" stroke-linecap="round" stroke-linejoin="round" stroke-miterlimit="30" stroke-width="2.842" d="M7.649 20.66c-1.077 1.727-1.175 4.287-1.175 6.086 0 5.26 1.927 9.398 6.451 11.72.727.373 1.132 1.944 1.954 2.154 1.161.297 1.586-.925 2.846-.925 5.394 0 8.978-2.197 12.131-5.28 1.972-1.928 3.47-5.319 3.47-7.51 0-7.297-8.545-11.91-12.152-12.577-3.607-.666-8.026.32-10.228 1.743-2.201 1.423-2.81 4.46-3.45 4.352-.83 1.47-2.191-.6-2.191-3.456 0-5.758 4.333-9.94 9.778-11.448 2.7-.747 5.475-.116 8.525-.116 1.1 0 1.189-2.698 2.44-2.95 1.317-.267 2.953.495 3.574 1.867.62 1.371-1.303 2.51-.664 3.018 2.989 2.37 6.366 4.447 8.019 7.081 3.876 6.181.903 15.531-4.4 16.34"/>
</svg>
