<svg xmlns="http://www.w3.org/2000/svg" width="210" height="160" viewBox="0 0 210 160">
  <g transform="translate(-134.528 -59.437)">
    <path fill="#a80" d="M243.383 73.045a97.256 97.256 0 0 0-11.998.803c-17.975 2.36-35.223 5.302-51.334 14.29-13.244 7.39-25.186 17.668-32.02 31.426-2.968 5.975-4.899 11.802-5.847 17.46-3.053 18.203 4.077 34.657 19.662 48.683 24.668 22.202 61.863 29.151 94 25.256 14.711-1.783 28.777-5.983 42-12.64 13.848-6.974 26.726-17.782 33.754-31.837 3.003-6.007 5.003-11.86 6.007-17.566 2.774-15.764-2.055-30.4-14.336-44.024-18.555-20.584-51.204-32.04-79.888-31.851Zm8.047-1.571c23.312-.36 55.534 15.874 66.364 31.682 10.316 15.056 11.304 29.403 9.34 44.785-1.23 9.637-5.939 19.103-14.529 27.237-6.472 6.128-13.932 10.638-21.886 14.549-10.776 5.297-22.802 8.172-34.668 9.648-27.836 3.463-60.416-1.974-82.666-20.12-5.042-4.11-9.499-8.936-13.096-14.359-5.698-8.587-9.647-19.255-10.94-27.305-3.195-19.877 16.074-43.286 35.165-52.027 12.239-5.604 31.577-9.835 44.82-11.399 3.184-.375 18.766-2.64 22.096-2.691z"/>
    <ellipse cx="239.231" cy="133.846" fill="#fea" stroke="#fbfbfe" stroke-linecap="round" stroke-linejoin="round" stroke-miterlimit="30" stroke-width=".483" rx="91.034" ry="66.162"/>
    <path fill="#fc0" d="M231.333 65.616c-17.975 2.36-35.222 5.303-51.333 14.292-13.243 7.389-25.186 17.667-32.02 31.425-12.517 25.2-6.613 47.758 13.815 66.143 24.668 22.202 61.863 29.152 94 25.257 14.711-1.783 28.777-5.984 42-12.642 13.848-6.973 26.726-17.78 33.753-31.835 11.302-22.604 8.398-43.035-8.328-61.59-21.207-23.524-60.821-35.129-91.887-31.05m0 10.574c25.478-3.007 56.67 4.478 76.667 20.786 23.005 18.76 26.855 48.854 4.553 69.971-6.472 6.129-13.932 10.638-21.886 14.549-10.776 5.298-22.8 8.171-34.667 9.648-27.835 3.463-60.417-1.975-82.667-20.12-5.041-4.111-9.498-8.935-13.096-14.357-19.655-29.625 5.546-58.819 32.43-71.128 12.239-5.604 25.424-7.785 38.666-9.349"/>
  </g>
  <path fill="#a80" d="M140.424 56.453c8.05-3.971 1.547-12.396-4.667-14.23-4.515-1.332-7.196 2.991-11.333 2.861-3.842-.12-8.247-2.872-12-3.86-6.535-1.722-13.948-1.996-20.667-1.324-8.709.87-18.738 5.162-23.058 13.22-1.808 3.373-1.334 7.37-2.957 10.666-2.11 4.282-5.892 7.402-7.673 12-3.923 10.125-.01 22.94 8.424 29.711 9.878 7.93 29.762 7.647 41.264 4.459 4.62-1.28 8.733-4.145 13.333-5.253 11.213-2.698 22.03-3.187 27.414-15.584 5.726-13.182-1.04-22.013-8.08-32.666m-4-5.334c-8.29 6.529 2.114 12.804 5.654 19.334 5.449 10.05-.774 22.203-10.988 26 1.548-3.681 4.4-6.496 4.638-10.667 1.707-29.785-38.187-39.602-59.97-30.667 9.326-17.305 34.852-5.324 48-2.936 4.992.906 8.63-5.77 12.666-1.064m-48.667 6.86c14.745-1.92 45.64 7.581 41.618 27.807-2.39 12.024-20.616 17.873-30.951 19.143-11.483 1.41-26.051-.92-32.765-11.143C56.342 79.598 73.782 59.8 87.757 57.98z"/>
  <path fill="#fc0" d="M140.926 52.238c8.05-3.97 1.547-12.395-4.667-14.229-4.515-1.333-7.196 2.99-11.333 2.861-3.842-.12-8.246-2.872-12-3.861-6.534-1.721-13.948-1.995-20.667-1.324-8.708.871-18.737 5.163-23.057 13.22-1.809 3.374-1.335 7.371-2.958 10.667-2.11 4.282-5.891 7.402-7.673 12-3.922 10.125-.01 22.94 8.425 29.71 9.877 7.93 29.761 7.647 41.263 4.46 4.62-1.28 8.733-4.146 13.334-5.253 11.212-2.699 22.029-3.187 27.413-15.584 5.726-13.183-1.04-22.014-8.08-32.667m-4-5.333c-8.29 6.528 2.115 12.804 5.654 19.333 5.449 10.05-.773 22.203-10.987 26 1.548-3.68 4.399-6.496 4.638-10.666 1.706-29.786-38.187-39.602-59.972-30.667 9.328-17.306 34.854-5.324 48-2.937 4.993.907 8.631-5.77 12.667-1.063m-48.667 6.86c14.745-1.921 45.64 7.581 41.619 27.807-2.39 12.023-20.617 17.873-30.952 19.142-11.482 1.41-26.05-.919-32.764-11.142-9.317-14.189 8.122-33.987 22.097-35.807z"/>
</svg>
